<?xml version="1.0" encoding="UTF-8" standalone="no"?>
<svg
   xmlns:dc="http://purl.org/dc/elements/1.1/"
   xmlns:cc="http://creativecommons.org/ns#"
   xmlns:rdf="http://www.w3.org/1999/02/22-rdf-syntax-ns#"
   xmlns:svg="http://www.w3.org/2000/svg"
   xmlns="http://www.w3.org/2000/svg"
   viewBox="0 0 666.66534 666.66669"
   height="666.66669"
   width="666.66534"
   xml:space="preserve"
   id="svg2"
   version="1.1"><metadata
     id="metadata8"><rdf:RDF><cc:Work
         rdf:about=""><dc:format>image/svg+xml</dc:format><dc:type
           rdf:resource="http://purl.org/dc/dcmitype/StillImage" /></cc:Work></rdf:RDF></metadata><defs
     id="defs6"><clipPath
       id="clipPath30"
       clipPathUnits="userSpaceOnUse"><path
         id="path28"
         d="M 0,500 H 499.999 V 0 H 0 Z" /></clipPath><clipPath
       id="clipPath112"
       clipPathUnits="userSpaceOnUse"><path
         id="path110"
         d="M 0,500 H 499.999 V 0 H 0 Z" /></clipPath><clipPath
       id="clipPath124"
       clipPathUnits="userSpaceOnUse"><path
         id="path122"
         d="M 0,500 H 499.999 V 0 H 0 Z" /></clipPath><clipPath
       id="clipPath136"
       clipPathUnits="userSpaceOnUse"><path
         id="path134"
         d="M 0,500 H 499.999 V 0 H 0 Z" /></clipPath><clipPath
       id="clipPath168"
       clipPathUnits="userSpaceOnUse"><path
         id="path166"
         d="M 0,500 H 499.999 V 0 H 0 Z" /></clipPath><clipPath
       id="clipPath196"
       clipPathUnits="userSpaceOnUse"><path
         id="path194"
         d="M 0,500 H 499.999 V 0 H 0 Z" /></clipPath><clipPath
       id="clipPath224"
       clipPathUnits="userSpaceOnUse"><path
         id="path222"
         d="m 221.499,336.249 h 25.736 v -4.837 h -25.736 z" /></clipPath><clipPath
       id="clipPath248"
       clipPathUnits="userSpaceOnUse"><path
         id="path246"
         d="m 228.401,318.099 h 47.061 v -4.628 h -47.061 z" /></clipPath><clipPath
       id="clipPath268"
       clipPathUnits="userSpaceOnUse"><path
         id="path266"
         d="m 221.316,293.185 h 25.737 v -4.837 h -25.737 z" /></clipPath><clipPath
       id="clipPath292"
       clipPathUnits="userSpaceOnUse"><path
         id="path290"
         d="m 221.127,248.272 h 25.736 v -4.836 h -25.736 z" /></clipPath><clipPath
       id="clipPath316"
       clipPathUnits="userSpaceOnUse"><path
         id="path314"
         d="m 228.219,275.035 h 47.062 v -4.628 h -47.062 z" /></clipPath><clipPath
       id="clipPath368"
       clipPathUnits="userSpaceOnUse"><path
         id="path366"
         d="m 228.398,229.566 h 55.096 v -4.622 h -55.096 z" /></clipPath><clipPath
       id="clipPath420"
       clipPathUnits="userSpaceOnUse"><path
         id="path418"
         d="m 266.453,378.978 h 13.239 v -14.47 h -13.239 z" /></clipPath><clipPath
       id="clipPath440"
       clipPathUnits="userSpaceOnUse"><path
         id="path438"
         d="m 248.732,360.744 h 47.216 v -5.861 h -47.216 z" /></clipPath><clipPath
       id="clipPath456"
       clipPathUnits="userSpaceOnUse"><path
         id="path454"
         d="M 0,500 H 499.999 V 0 H 0 Z" /></clipPath><clipPath
       id="clipPath476"
       clipPathUnits="userSpaceOnUse"><path
         id="path474"
         d="M 0,500 H 499.999 V 0 H 0 Z" /></clipPath><clipPath
       id="clipPath620"
       clipPathUnits="userSpaceOnUse"><path
         id="path618"
         d="m 152.158,219.182 h 44.537 v -5.422 h -44.537 z" /></clipPath><clipPath
       id="clipPath636"
       clipPathUnits="userSpaceOnUse"><path
         id="path634"
         d="m 167.114,195.786 h 8.174 v -31.732 h -8.174 z" /></clipPath></defs><g
     transform="matrix(1.3333333,0,0,-1.3333333,0,666.66667)"
     id="g10"><path
       id="path12"
       style="fill:#e1e1e1;fill-opacity:1;fill-rule:nonzero;stroke:none"
       d="m 304.026,184.798 h 161.863 v 92.845 H 304.026 Z m 162.863,-1 H 303.026 v 94.845 h 163.863 z" /><path
       id="path14"
       style="fill:#f0f0f0;fill-opacity:1;fill-rule:nonzero;stroke:none"
       d="M 433.088,224.9 H 324.953 v 3.172 h 108.135 z" /><path
       id="path16"
       style="fill:#f0f0f0;fill-opacity:1;fill-rule:nonzero;stroke:none"
       d="M 440.536,212.789 H 324.954 v 3.461 h 115.582 z" /><path
       id="path18"
       style="fill:#f0f0f0;fill-opacity:1;fill-rule:nonzero;stroke:none"
       d="M 440.536,200.83 H 324.954 v 3.461 h 115.582 z" /><path
       id="path20"
       style="fill:#f0f0f0;fill-opacity:1;fill-rule:nonzero;stroke:none"
       d="m 362.746,237.012 h -37.792 v 8.229 h 37.792 z" /><path
       id="path22"
       style="fill:#e1e1e1;fill-opacity:1;fill-rule:nonzero;stroke:none"
       d="M 466.389,263.044 H 303.526 v 15.099 h 162.863 z" /><g
       id="g24"><g
         clip-path="url(#clipPath30)"
         id="g26"><g
           transform="translate(453.857,265.3008)"
           id="g32"><path
             id="path34"
             style="fill:#ffffff;fill-opacity:1;fill-rule:nonzero;stroke:none"
             d="m 0,0 c -0.208,0.199 1.891,2.729 4.687,5.653 2.796,2.924 5.232,5.132 5.44,4.933 C 10.335,10.387 8.236,7.856 5.439,4.933 2.644,2.01 0.208,-0.199 0,0" /></g><g
           transform="translate(463.9839,265.3008)"
           id="g36"><path
             id="path38"
             style="fill:#ffffff;fill-opacity:1;fill-rule:nonzero;stroke:none"
             d="m 0,0 c -0.208,-0.199 -2.644,2.01 -5.439,4.933 -2.798,2.923 -4.896,5.454 -4.688,5.653 0.208,0.199 2.643,-2.009 5.44,-4.933 C -1.891,2.729 0.208,0.199 0,0" /></g><path
           id="path40"
           style="fill:#e7e7e7;fill-opacity:1;fill-rule:nonzero;stroke:none"
           d="M 265.227,372.101 H 102.363 v 93.845 h 162.864 z" /><path
           id="path42"
           style="fill:#f0f0f0;fill-opacity:1;fill-rule:nonzero;stroke:none"
           d="M 231.926,412.704 H 123.792 v 3.172 h 108.134 z" /><path
           id="path44"
           style="fill:#f0f0f0;fill-opacity:1;fill-rule:nonzero;stroke:none"
           d="M 239.374,400.593 H 123.792 v 3.46 h 115.582 z" /><path
           id="path46"
           style="fill:#f0f0f0;fill-opacity:1;fill-rule:nonzero;stroke:none"
           d="M 239.374,388.634 H 123.792 v 3.46 h 115.582 z" /><path
           id="path48"
           style="fill:#f0f0f0;fill-opacity:1;fill-rule:nonzero;stroke:none"
           d="m 161.583,424.815 h -37.791 v 8.229 h 37.791 z" /><path
           id="path50"
           style="fill:#e1e1e1;fill-opacity:1;fill-rule:nonzero;stroke:none"
           d="M 265.227,450.848 H 102.363 v 15.098 h 162.864 z" /><g
           transform="translate(252.1363,453.1758)"
           id="g52"><path
             id="path54"
             style="fill:#ffffff;fill-opacity:1;fill-rule:nonzero;stroke:none"
             d="m 0,0 c -0.208,0.199 1.891,2.73 4.687,5.653 2.796,2.924 5.232,5.132 5.44,4.933 C 10.335,10.388 8.236,7.857 5.439,4.933 2.644,2.01 0.208,-0.199 0,0" /></g><g
           transform="translate(262.2632,453.1758)"
           id="g56"><path
             id="path58"
             style="fill:#ffffff;fill-opacity:1;fill-rule:nonzero;stroke:none"
             d="m 0,0 c -0.208,-0.199 -2.644,2.01 -5.439,4.933 -2.798,2.924 -4.896,5.455 -4.688,5.653 0.208,0.199 2.643,-2.009 5.44,-4.933 C -1.891,2.73 0.208,0.199 0,0" /></g><path
           id="path60"
           style="fill:#e1e1e1;fill-opacity:1;fill-rule:nonzero;stroke:none"
           d="m 40.681,292.611 h 161.863 v 92.845 H 40.681 Z m 162.863,-1 H 39.681 v 94.845 h 163.863 z" /><path
           id="path62"
           style="fill:#f0f0f0;fill-opacity:1;fill-rule:nonzero;stroke:none"
           d="M 169.743,332.713 H 61.608 v 3.172 h 108.135 z" /><path
           id="path64"
           style="fill:#f0f0f0;fill-opacity:1;fill-rule:nonzero;stroke:none"
           d="M 177.191,320.603 H 61.608 v 3.46 h 115.583 z" /><path
           id="path66"
           style="fill:#f0f0f0;fill-opacity:1;fill-rule:nonzero;stroke:none"
           d="M 177.191,308.644 H 61.608 v 3.46 h 115.583 z" /><path
           id="path68"
           style="fill:#f0f0f0;fill-opacity:1;fill-rule:nonzero;stroke:none"
           d="M 99.4,344.824 H 61.608 v 8.23 H 99.4 Z" /><path
           id="path70"
           style="fill:#e1e1e1;fill-opacity:1;fill-rule:nonzero;stroke:none"
           d="M 203.044,370.857 H 40.181 v 15.099 h 162.863 z" /><path
           id="path72"
           style="fill:#e7e7e7;fill-opacity:1;fill-rule:nonzero;stroke:none"
           d="M 392.656,97.72 H 200.352 v 172.156 h 192.304 z" /><path
           id="path74"
           style="fill:#f0f0f0;fill-opacity:1;fill-rule:nonzero;stroke:none"
           d="M 210.019,167.6 H 59.381 v 156.509 h 150.638 z" /><path
           id="path76"
           style="fill:#e1e1e1;fill-opacity:1;fill-rule:nonzero;stroke:none"
           d="M 210.019,307.056 H 59.381 v 17.053 h 150.638 z" /><g
           transform="translate(71.8208,315.7568)"
           id="g78"><path
             id="path80"
             style="fill:#ffffff;fill-opacity:1;fill-rule:nonzero;stroke:none"
             d="m 0,0 c 0,-1.826 -1.416,-3.306 -3.163,-3.306 -1.747,0 -3.163,1.48 -3.163,3.306 0,1.826 1.416,3.306 3.163,3.306 C -1.416,3.306 0,1.826 0,0" /></g><g
           transform="translate(84.6495,315.7568)"
           id="g82"><path
             id="path84"
             style="fill:#ffffff;fill-opacity:1;fill-rule:nonzero;stroke:none"
             d="m 0,0 c 0,-1.826 -1.416,-3.306 -3.163,-3.306 -1.746,0 -3.162,1.48 -3.162,3.306 0,1.826 1.416,3.306 3.162,3.306 C -1.416,3.306 0,1.826 0,0" /></g><g
           transform="translate(97.4781,315.7568)"
           id="g86"><path
             id="path88"
             style="fill:#ffffff;fill-opacity:1;fill-rule:nonzero;stroke:none"
             d="m 0,0 c 0,-1.826 -1.416,-3.306 -3.163,-3.306 -1.746,0 -3.162,1.48 -3.162,3.306 0,1.826 1.416,3.306 3.162,3.306 C -1.416,3.306 0,1.826 0,0" /></g><path
           id="path90"
           style="fill:#f0f0f0;fill-opacity:1;fill-rule:nonzero;stroke:none"
           d="M 445.384,240.055 H 253.08 v 191.661 h 192.304 z" /><path
           id="path92"
           style="fill:#e1e1e1;fill-opacity:1;fill-rule:nonzero;stroke:none"
           d="M 445.384,409.266 H 253.08 v 22.45 h 192.304 z" /><g
           transform="translate(269.4576,420.7212)"
           id="g94"><path
             id="path96"
             style="fill:#ffffff;fill-opacity:1;fill-rule:nonzero;stroke:none"
             d="m 0,0 c 0,-2.404 -1.864,-4.353 -4.164,-4.353 -2.299,0 -4.163,1.949 -4.163,4.353 0,2.404 1.864,4.352 4.163,4.352 C -1.864,4.352 0,2.404 0,0" /></g><g
           transform="translate(285.1275,423.665)"
           id="g98"><path
             id="path100"
             style="fill:#ffffff;fill-opacity:1;fill-rule:nonzero;stroke:none"
             d="m 0,0 c 1.699,-1.7 1.759,-4.396 0.133,-6.021 -1.626,-1.626 -4.322,-1.566 -6.022,0.133 -1.699,1.7 -1.759,4.396 -0.133,6.022 C -4.396,1.76 -1.7,1.7 0,0" /></g><g
           transform="translate(303.2359,420.7212)"
           id="g102"><path
             id="path104"
             style="fill:#ffffff;fill-opacity:1;fill-rule:nonzero;stroke:none"
             d="m 0,0 c 0,-2.404 -1.864,-4.353 -4.164,-4.353 -2.3,0 -4.163,1.949 -4.163,4.353 0,2.404 1.863,4.352 4.163,4.352 C -1.864,4.352 0,2.404 0,0" /></g></g></g><g
       id="g106"><g
         clip-path="url(#clipPath112)"
         id="g108"><g
           transform="translate(359.3658,368.6255)"
           id="g114"><path
             id="path116"
             style="fill:#f0f0f0;fill-opacity:1;fill-rule:nonzero;stroke:none"
             d="m 0,0 c -36.617,31.956 -86.189,0.009 -134.343,-67.343 -48.153,-67.353 -71.066,-39.025 -112.032,-68.687 -40.966,-29.66 -51.858,-151.252 92.382,-139.433 C -9.754,-263.645 95.738,-83.548 0,0" /></g></g></g><g
       id="g118"><g
         clip-path="url(#clipPath124)"
         id="g120"><g
           transform="translate(403.8423,46.8691)"
           id="g126"><path
             id="path128"
             style="fill:#1a2e35;fill-opacity:1;fill-rule:nonzero;stroke:none"
             d="m 0,0 c 0,-0.144 -69.439,-0.261 -155.077,-0.261 -85.667,0 -155.091,0.117 -155.091,0.261 0,0.144 69.424,0.261 155.091,0.261 C -69.439,0.261 0,0.144 0,0" /></g></g></g><g
       id="g130"><g
         clip-path="url(#clipPath136)"
         id="g132"><g
           transform="translate(336.1792,169.2881)"
           id="g138"><path
             id="path140"
             style="fill:#ff4f5b;fill-opacity:1;fill-rule:nonzero;stroke:none"
             d="m 0,0 c -15.448,10.793 -18.953,30.826 -18.342,48.834 0.102,3.006 -0.228,6.175 1.201,8.812 1.431,2.637 4.767,4.44 7.458,3.173 2.233,-1.05 3.205,-3.647 4.454,-5.795 1.662,-2.857 4.137,-5.221 7.05,-6.733 1.914,-0.993 4.283,-1.601 6.172,-0.559 2.593,1.431 2.899,5.013 2.88,8.003 -0.035,5.573 -0.069,11.145 -0.104,16.716 -0.019,2.989 -0.028,6.042 0.902,8.88 0.93,2.837 2.984,5.473 5.828,6.27 2.845,0.796 6.361,-0.844 6.962,-3.77 0.25,-1.218 0.002,-2.482 0.085,-3.723 0.083,-1.241 0.661,-2.614 1.84,-2.96 1.193,-0.35 2.389,0.498 3.283,1.373 3.086,3.018 5.18,6.907 7.137,10.774 1.957,3.867 3.856,7.826 6.656,11.119 2.8,3.292 6.673,5.901 10.954,6.144 4.282,0.242 8.844,-2.401 9.926,-6.604 1.085,-4.215 -1.374,-8.491 -4.05,-11.903 -3.97,-5.062 -8.666,-9.538 -13.895,-13.244 -0.942,-0.669 -1.963,-1.392 -2.324,-2.499 -0.649,-1.994 1.24,-3.973 3.207,-4.628 2.229,-0.742 4.647,-0.511 6.978,-0.785 2.331,-0.275 4.856,-1.303 5.738,-3.506 1.225,-3.056 -1.331,-6.259 -3.846,-8.357 -5.035,-4.201 -10.785,-7.519 -16.919,-9.766 -2.199,-0.805 -4.513,-1.511 -6.287,-3.056 -1.773,-1.546 -2.843,-4.232 -1.772,-6.338 1.072,-2.108 3.822,-2.782 6.126,-2.354 2.303,0.426 4.365,1.677 6.56,2.505 4.109,1.551 9.414,1.268 12.046,-2.283 1.73,-2.334 1.882,-5.584 1.007,-8.366 C 56.037,22.592 54.263,20.195 52.379,17.985 45.794,10.26 37.364,4.04 27.833,0.735 18.303,-2.569 9.472,-3.464 0,0" /></g><g
           transform="translate(396.2017,273.3428)"
           id="g142"><path
             id="path144"
             style="fill:#1a2e35;fill-opacity:1;fill-rule:nonzero;stroke:none"
             d="m 0,0 c 0.007,-0.007 -0.092,-0.104 -0.29,-0.284 -0.221,-0.197 -0.515,-0.459 -0.888,-0.792 -0.783,-0.692 -1.937,-1.713 -3.388,-3.068 -2.906,-2.701 -6.987,-6.765 -11.419,-12.325 -2.225,-2.771 -4.536,-5.908 -6.957,-9.321 -2.415,-3.419 -4.973,-7.088 -7.517,-11.046 -2.544,-3.956 -5.091,-8.196 -7.376,-12.777 -1.152,-2.285 -2.18,-4.677 -3.228,-7.116 -1.043,-2.437 -2.101,-4.911 -3.172,-7.414 -4.248,-10.025 -7.985,-19.716 -10.655,-28.769 -2.685,-9.045 -4.283,-17.428 -4.982,-24.531 -0.717,-7.107 -0.57,-12.907 -0.28,-16.886 0.156,-1.99 0.308,-3.535 0.449,-4.577 0.057,-0.5 0.103,-0.894 0.138,-1.189 0.028,-0.268 0.038,-0.407 0.029,-0.409 -0.01,-0.001 -0.038,0.134 -0.085,0.4 -0.047,0.293 -0.111,0.685 -0.192,1.182 -0.176,1.039 -0.364,2.582 -0.553,4.575 -0.356,3.984 -0.563,9.804 0.107,16.942 0.653,7.134 2.217,15.558 4.885,24.639 2.65,9.088 6.382,18.809 10.634,28.842 1.072,2.504 2.132,4.979 3.176,7.417 1.047,2.432 2.086,4.844 3.249,7.14 2.304,4.603 4.871,8.853 7.433,12.811 2.562,3.961 5.137,7.626 7.57,11.035 2.441,3.406 4.776,6.538 7.026,9.301 4.484,5.545 8.623,9.581 11.577,12.236 1.475,1.333 2.652,2.329 3.46,2.994 0.389,0.315 0.693,0.563 0.923,0.75 0.21,0.166 0.32,0.247 0.326,0.24" /></g><g
           transform="translate(358.0435,223.9971)"
           id="g146"><path
             id="path148"
             style="fill:#1a2e35;fill-opacity:1;fill-rule:nonzero;stroke:none"
             d="M 0,0 C -0.037,-0.006 -0.139,0.448 -0.292,1.275 -0.449,2.102 -0.637,3.304 -0.847,4.793 -1.27,7.77 -1.713,11.9 -2.185,16.456 c -0.471,4.559 -0.972,8.671 -1.439,11.633 -0.23,1.481 -0.427,2.679 -0.574,3.505 -0.143,0.827 -0.204,1.289 -0.167,1.298 0.037,0.008 0.169,-0.438 0.376,-1.253 0.212,-0.814 0.468,-2.005 0.747,-3.483 0.567,-2.955 1.132,-7.078 1.603,-11.64 C -1.185,12.019 -0.774,7.95 -0.461,4.842 -0.311,3.438 -0.183,2.256 -0.08,1.307 0.007,0.472 0.038,0.006 0,0" /></g><g
           transform="translate(396.481,231.1806)"
           id="g150"><path
             id="path152"
             style="fill:#1a2e35;fill-opacity:1;fill-rule:nonzero;stroke:none"
             d="m 0,0 c 0.001,-0.038 -0.546,-0.102 -1.533,-0.184 -0.987,-0.087 -2.414,-0.207 -4.173,-0.411 -3.521,-0.38 -8.365,-1.075 -13.677,-2.076 -5.311,-1.011 -10.079,-2.13 -13.504,-3.039 -1.717,-0.442 -3.095,-0.838 -4.051,-1.105 -0.954,-0.272 -1.487,-0.405 -1.5,-0.369 -0.011,0.038 0.5,0.24 1.437,0.576 0.938,0.331 2.304,0.785 4.012,1.278 3.408,1.009 8.178,2.192 13.506,3.207 5.327,1.003 10.199,1.64 13.74,1.92 1.769,0.154 3.206,0.215 4.199,0.235 C -0.551,0.048 -0.002,0.039 0,0" /></g><g
           transform="translate(341.3003,181.2842)"
           id="g154"><path
             id="path156"
             style="fill:#1a2e35;fill-opacity:1;fill-rule:nonzero;stroke:none"
             d="m 0,0 c -0.018,-0.008 -0.107,0.153 -0.264,0.469 -0.177,0.376 -0.394,0.835 -0.657,1.39 -0.565,1.21 -1.338,2.983 -2.264,5.185 -1.854,4.403 -4.224,10.566 -6.748,17.402 -2.525,6.839 -4.835,13.016 -6.594,17.451 -0.863,2.157 -1.573,3.93 -2.1,5.249 -0.226,0.572 -0.411,1.043 -0.563,1.431 -0.123,0.329 -0.18,0.506 -0.163,0.515 0.018,0.007 0.108,-0.154 0.264,-0.47 0.178,-0.376 0.395,-0.834 0.657,-1.39 0.566,-1.21 1.338,-2.982 2.264,-5.184 1.855,-4.403 4.225,-10.567 6.749,-17.405 C -6.895,17.806 -4.585,11.63 -2.825,7.193 -1.962,5.038 -1.253,3.264 -0.726,1.946 -0.5,1.374 -0.314,0.901 -0.162,0.515 -0.039,0.185 0.018,0.008 0,0" /></g><g
           transform="translate(392.3775,197.7461)"
           id="g158"><path
             id="path160"
             style="fill:#1a2e35;fill-opacity:1;fill-rule:nonzero;stroke:none"
             d="M 0,0 C 0.005,-0.019 -0.17,-0.09 -0.507,-0.209 -0.906,-0.343 -1.396,-0.507 -1.99,-0.706 -3.36,-1.15 -5.21,-1.75 -7.46,-2.479 c -4.618,-1.498 -10.973,-3.639 -17.991,-6.015 -7.021,-2.378 -13.402,-4.463 -18.052,-5.865 -2.325,-0.703 -4.212,-1.251 -5.523,-1.604 -0.607,-0.159 -1.107,-0.29 -1.513,-0.397 -0.348,-0.085 -0.533,-0.12 -0.538,-0.102 -0.005,0.019 0.17,0.09 0.507,0.21 0.398,0.133 0.888,0.297 1.483,0.496 1.37,0.444 3.219,1.043 5.469,1.773 4.618,1.497 10.973,3.639 17.994,6.016 7.019,2.377 13.398,4.462 18.049,5.864 2.325,0.703 4.212,1.251 5.524,1.604 0.607,0.159 1.106,0.291 1.513,0.397 C -0.19,-0.017 -0.006,0.019 0,0" /></g></g></g><g
       id="g162"><g
         clip-path="url(#clipPath168)"
         id="g164"><g
           transform="translate(360.8687,394.4346)"
           id="g170"><path
             id="path172"
             style="fill:#ff4f5b;fill-opacity:1;fill-rule:nonzero;stroke:none"
             d="m 0,0 3.661,-11.183 c 0.154,-0.473 -0.116,-0.956 -0.573,-1.12 l -5.122,-1.832 c -0.392,-0.14 -0.894,0.067 -1.048,0.54 l -3.661,11.183 c -3.967,0.167 -7.65,2.797 -9.028,7.004 -1.77,5.409 1,11.323 6.191,13.179 C -4.392,19.627 1.262,16.727 3.033,11.318 4.41,7.111 3.041,2.674 0,0 m -30.009,38.853 c -2.226,6.802 1.249,14.23 7.757,16.557 6.502,2.326 13.606,-1.317 15.833,-8.119 l 2.203,-6.729 -23.59,-8.439 z m 40.681,7.034 -5.153,-1.843 -2.204,6.729 c -4.063,12.412 -17.034,19.053 -28.897,14.81 -11.87,-4.247 -18.216,-17.797 -14.152,-30.209 l 2.203,-6.73 -5.17,-1.849 c -4.021,-1.439 -6.196,-6.072 -4.82,-10.279 l 14.336,-43.791 c 1.399,-4.27 5.837,-6.548 9.857,-5.11 l 53.374,19.093 c 4.085,1.461 6.263,6.105 4.864,10.376 L 20.574,40.875 c -1.377,4.207 -5.817,6.474 -9.902,5.012" /></g><g
           transform="translate(366.1626,438.5991)"
           id="g174"><path
             id="path176"
             style="fill:#1a2e35;fill-opacity:1;fill-rule:nonzero;stroke:none"
             d="m 0,0 c 0.049,-0.135 -9.55,-3.729 -21.437,-8.025 -11.891,-4.299 -21.568,-7.672 -21.617,-7.537 -0.049,0.135 9.548,3.728 21.44,8.026 C -9.728,-3.239 -0.049,0.135 0,0" /></g><g
           transform="translate(377.4966,436.7563)"
           id="g178"><path
             id="path180"
             style="fill:#1a2e35;fill-opacity:1;fill-rule:nonzero;stroke:none"
             d="m 0,0 c 0.009,0.003 0.048,-0.086 0.115,-0.262 0.076,-0.204 0.172,-0.462 0.291,-0.783 0.257,-0.729 0.615,-1.744 1.069,-3.032 0.919,-2.676 2.226,-6.486 3.837,-11.178 1.605,-4.737 3.511,-10.359 5.626,-16.599 1.045,-3.134 2.187,-6.389 3.282,-9.827 0.506,-1.727 0.926,-3.574 0.75,-5.487 -0.089,-0.95 -0.347,-1.905 -0.81,-2.768 -0.471,-0.858 -1.128,-1.613 -1.889,-2.228 C 10.733,-53.393 8.934,-54.11 7.195,-54.755 5.45,-55.382 3.729,-56 2.04,-56.606 c -3.38,-1.21 -6.64,-2.377 -9.747,-3.489 -6.208,-2.211 -11.802,-4.202 -16.514,-5.88 -4.679,-1.646 -8.478,-2.983 -11.148,-3.921 -1.291,-0.443 -2.309,-0.791 -3.039,-1.042 -0.326,-0.105 -0.588,-0.19 -0.795,-0.258 -0.181,-0.055 -0.275,-0.08 -0.277,-0.071 -0.003,0.008 0.084,0.049 0.258,0.121 0.203,0.08 0.459,0.181 0.778,0.307 0.723,0.273 1.729,0.652 3.006,1.133 2.657,0.977 6.437,2.366 11.093,4.078 4.7,1.707 10.282,3.734 16.476,5.984 3.103,1.122 6.36,2.298 9.736,3.518 1.689,0.609 3.406,1.229 5.15,1.857 1.724,0.64 3.475,1.348 4.925,2.51 0.719,0.58 1.326,1.28 1.761,2.07 0.426,0.796 0.666,1.677 0.751,2.57 0.169,1.797 -0.227,3.593 -0.724,5.294 -1.077,3.404 -2.217,6.689 -3.247,9.818 -2.075,6.253 -3.945,11.888 -5.521,16.635 -1.544,4.714 -2.799,8.541 -3.68,11.231 C 0.867,-2.84 0.541,-1.815 0.307,-1.079 0.207,-0.75 0.128,-0.487 0.065,-0.278 0.014,-0.097 -0.009,-0.003 0,0" /></g><g
           transform="translate(349.3423,450.5469)"
           id="g182"><path
             id="path184"
             style="fill:#1a2e35;fill-opacity:1;fill-rule:nonzero;stroke:none"
             d="M 0,0 C -0.026,-0.044 -0.531,0.269 -1.514,0.665 -2.499,1.041 -3.989,1.48 -5.879,1.54 -7.756,1.609 -10.04,1.318 -12.32,0.323 c -2.272,-0.985 -4.51,-2.731 -6.113,-5.108 -1.633,-2.368 -2.348,-5.109 -2.349,-7.593 -0.022,-2.496 0.509,-4.72 1.017,-6.544 0.528,-1.826 1.067,-3.275 1.421,-4.281 0.36,-1.006 0.553,-1.565 0.518,-1.579 -0.032,-0.012 -0.289,0.52 -0.707,1.505 -0.413,0.986 -1.006,2.418 -1.584,4.25 -0.56,1.829 -1.14,4.08 -1.146,6.652 -0.027,2.557 0.705,5.431 2.399,7.882 1.662,2.464 3.991,4.261 6.353,5.256 2.371,1.006 4.726,1.263 6.65,1.145 1.936,-0.11 3.449,-0.616 4.426,-1.057 C -0.95,0.614 -0.58,0.42 -0.348,0.257 -0.109,0.103 0.01,0.016 0,0" /></g><g
           transform="translate(349.7964,411.4165)"
           id="g186"><path
             id="path188"
             style="fill:#1a2e35;fill-opacity:1;fill-rule:nonzero;stroke:none"
             d="M 0,0 C -0.006,0.013 0.167,0.099 0.507,0.252 0.844,0.41 1.359,0.61 2.05,0.808 2.734,1.022 3.612,1.179 4.648,1.239 5.682,1.291 6.898,1.184 8.156,0.716 c 2.555,-0.898 4.91,-3.51 6.067,-6.97 0.555,-1.748 0.605,-3.778 0.046,-5.742 -0.596,-1.954 -1.69,-3.83 -3.27,-5.406 l 0.065,0.265 c 1.329,-3.644 2.775,-7.612 4.281,-11.738 l 0.091,-0.251 -0.253,-0.085 c -0.725,-0.243 -1.503,-0.504 -2.287,-0.767 -1.684,-0.564 -3.345,-1.12 -4.975,-1.666 l -0.246,-0.082 -0.081,0.247 c -1.37,4.146 -2.871,8.054 -3.961,11.791 l 0.216,-0.17 c -2.047,0.136 -3.887,0.996 -5.352,2.116 -1.471,1.131 -2.598,2.534 -3.358,4.012 -0.747,1.481 -1.123,3.055 -1.06,4.504 0.037,1.449 0.371,2.759 0.839,3.864 0.933,2.23 2.323,3.632 3.353,4.397 C -0.681,-0.199 0,0 0,0 c 0.024,-0.045 -0.635,-0.296 -1.636,-1.087 -0.981,-0.79 -2.306,-2.194 -3.178,-4.384 -0.872,-2.137 -1.249,-5.209 0.308,-8.076 0.747,-1.416 1.848,-2.764 3.272,-3.843 1.417,-1.068 3.184,-1.873 5.109,-1.991 l 0.169,-0.01 0.047,-0.16 c 1.102,-3.71 2.612,-7.603 3.994,-11.766 l -0.328,0.164 c 1.629,0.547 3.29,1.104 4.974,1.669 0.784,0.262 1.561,0.523 2.287,0.766 l -0.163,-0.335 c -1.495,4.131 -2.932,8.101 -4.251,11.749 l -0.054,0.147 0.119,0.118 c 1.496,1.479 2.586,3.312 3.16,5.173 0.546,1.877 0.514,3.806 -0.004,5.49 -1.093,3.359 -3.34,5.913 -5.777,6.809 C 6.845,0.903 5.667,1.031 4.655,1.004 3.642,0.968 2.774,0.839 2.091,0.651 0.717,0.298 0.018,-0.043 0,0" /></g></g></g><g
       id="g190"><g
         clip-path="url(#clipPath196)"
         id="g192"><g
           transform="translate(318.8911,122.6826)"
           id="g198"><path
             id="path200"
             style="fill:#375a64;fill-opacity:1;fill-rule:nonzero;stroke:none"
             d="m 0,0 -99.881,0.462 c -12.013,0.055 -21.707,9.836 -21.657,21.849 l 1.059,250.403 c 0.051,12.02 9.838,21.721 21.857,21.666 L 1.26,293.918 c 12.012,-0.055 21.707,-9.836 21.656,-21.849 L 21.857,21.665 C 21.807,9.646 12.02,-0.056 0,0" /></g><g
           transform="translate(320.0083,407.959)"
           id="g202"><path
             id="path204"
             style="fill:#ffffff;fill-opacity:1;fill-rule:nonzero;stroke:none"
             d="m 0,0 -19.365,0.089 c -2.597,0.012 -4.712,-2.179 -4.723,-4.894 l -0.016,-3.512 c -0.01,-2.715 -2.125,-4.907 -4.722,-4.894 l -37.747,0.174 c -2.597,0.012 -4.693,2.223 -4.682,4.937 l 0.015,3.513 c 0.011,2.715 -2.085,4.926 -4.682,4.938 l -6.81,0.031 -16.95,0.078 c -8.417,0.039 -15.272,-6.755 -15.307,-15.173 l -1.033,-244.412 c -0.036,-8.414 6.753,-15.264 15.167,-15.303 l 99.681,-0.46 c 8.417,-0.039 15.272,6.755 15.308,15.173 l 1.033,244.413 C 15.202,-6.889 8.413,-0.039 0,0" /></g><g
           transform="translate(306.5933,165.6758)"
           id="g206"><path
             id="path208"
             style="fill:#ff4f5b;fill-opacity:1;fill-rule:nonzero;stroke:none"
             d="m 0,0 -74.124,0.342 c -0.767,0.004 -1.386,0.839 -1.381,1.866 l 0.082,19.392 c 0.004,1.027 0.63,1.856 1.397,1.853 L 0.098,23.11 C 0.865,23.106 1.484,22.271 1.479,21.244 L 1.397,1.854 C 1.394,0.826 0.768,-0.004 0,0" /></g><text
           id="text212"
           style="font-variant:normal;font-weight:normal;font-stretch:normal;font-size:8.29898071px;font-family:Montserrat;-inkscape-font-specification:Montserrat-Regular;writing-mode:lr-tb;fill:#e9e9e4;fill-opacity:1;fill-rule:nonzero;stroke:none"
           transform="matrix(0.95662345,-0.00442223,-0.00422943,-0.99999022,252.5873,175.0545)"><tspan
             id="tspan210"
             y="0"
             x="0 5.1619663 7.6682587 14.241052 20.456989 22.598125 28.938547">SING UP</tspan></text>
<g
           transform="translate(247.2149,331.4116)"
           id="g214"><path
             id="path216"
             style="fill:#ff4f5b;fill-opacity:1;fill-rule:nonzero;stroke:none"
             d="m 0,0 -25.716,0.119 0.02,4.718 L 0.02,4.718 Z" /></g><g
           id="g218"><g
             id="g220" /><g
             id="g232"><g
               style="opacity:0.10000598"
               id="g230"
               clip-path="url(#clipPath224)"><g
                 id="g228"
                 transform="translate(247.2149,331.4116)"><path
                   id="path226"
                   style="fill:#000000;fill-opacity:1;fill-rule:nonzero;stroke:none"
                   d="m 0,0 -25.716,0.119 0.02,4.718 L 0.02,4.718 Z" /></g></g></g></g><g
           transform="translate(322.6548,307.1743)"
           id="g234"><path
             id="path236"
             style="fill:#e1e1e1;fill-opacity:1;fill-rule:nonzero;stroke:none"
             d="M 0,0 C -0.004,0.02 0.215,-0.012 0.587,0.138 0.937,0.274 1.492,0.7 1.556,1.483 1.553,3.078 1.548,5.396 1.542,8.373 c 0,1.498 -0.001,3.162 -0.002,4.981 10e-4,0.456 10e-4,0.921 10e-4,1.396 0.013,0.485 0.012,0.936 -0.28,1.31 -0.263,0.37 -0.713,0.607 -1.183,0.609 -0.513,0.001 -1.035,0.002 -1.566,0.003 -4.255,0.008 -9.096,0.018 -14.445,0.028 -21.422,0.08 -50.987,0.189 -83.64,0.31 -0.431,0.004 -0.852,-0.207 -1.102,-0.557 -0.278,-0.353 -0.266,-0.771 -0.26,-1.307 -0.004,-1.015 -0.008,-2.026 -0.013,-3.035 -0.009,-2.016 -0.017,-4.02 -0.026,-6.008 -0.005,-0.995 -0.009,-1.985 -0.014,-2.972 0.016,-0.473 -0.046,-1.039 0.042,-1.406 0.099,-0.402 0.403,-0.742 0.78,-0.902 0.197,-0.08 0.381,-0.108 0.619,-0.106 l 0.732,-0.004 1.46,-0.006 c 0.971,-0.005 1.938,-0.01 2.9,-0.015 7.702,-0.041 15.13,-0.081 22.208,-0.118 C -58.098,0.488 -45.354,0.41 -34.645,0.345 -23.956,0.26 -15.299,0.192 -9.295,0.145 -6.317,0.11 -3.998,0.083 -2.403,0.064 -1.629,0.049 -1.034,0.038 -0.611,0.03 -0.207,0.019 0,0 0,0 c 0,0 -0.207,-0.017 -0.611,-0.023 -0.423,-0.005 -1.018,-0.011 -1.792,-0.018 -1.596,-0.004 -3.915,-0.01 -6.893,-0.017 -6.005,0.008 -14.661,0.02 -25.35,0.034 C -45.355,0.01 -58.1,0.05 -72.25,0.094 c -7.077,0.028 -14.505,0.057 -22.207,0.088 -0.962,0.004 -1.929,0.007 -2.9,0.012 l -1.46,0.006 -0.732,0.003 c -0.25,-0.005 -0.56,0.034 -0.816,0.146 -0.524,0.22 -0.941,0.689 -1.08,1.245 -0.079,0.282 -0.061,0.569 -0.062,0.8 l 0.003,0.739 c 0.004,0.987 0.008,1.978 0.012,2.972 0.008,1.989 0.016,3.992 0.024,6.008 0.004,1.009 0.009,2.02 0.012,3.035 0.008,0.26 -0.014,0.488 0.026,0.799 0.045,0.292 0.158,0.574 0.334,0.812 0.343,0.483 0.933,0.779 1.525,0.772 32.653,-0.18 62.217,-0.344 83.639,-0.463 5.35,-0.039 10.191,-0.074 14.446,-0.105 C -0.955,16.959 -0.433,16.955 0.08,16.95 0.641,16.945 1.173,16.657 1.479,16.217 1.822,15.786 1.819,15.196 1.8,14.749 1.796,14.274 1.793,13.809 1.789,13.354 1.772,11.534 1.758,9.87 1.745,8.372 1.708,5.392 1.68,3.071 1.66,1.475 1.573,0.641 0.975,0.213 0.605,0.088 0.215,-0.049 0,0 0,0" /></g><g
           transform="translate(275.4439,313.4707)"
           id="g238"><path
             id="path240"
             style="fill:#ff4f5b;fill-opacity:1;fill-rule:nonzero;stroke:none"
             d="M 0,0 -47.043,0.217 -47.024,4.628 0.019,4.411 Z" /></g><g
           id="g242"><g
             id="g244" /><g
             id="g256"><g
               style="opacity:0.19999701"
               id="g254"
               clip-path="url(#clipPath248)"><g
                 id="g252"
                 transform="translate(275.4439,313.4707)"><path
                   id="path250"
                   style="fill:#ffffff;fill-opacity:1;fill-rule:nonzero;stroke:none"
                   d="M 0,0 -47.043,0.217 -47.024,4.628 0.019,4.411 Z" /></g></g></g></g><g
           transform="translate(247.0327,288.3481)"
           id="g258"><path
             id="path260"
             style="fill:#ff4f5b;fill-opacity:1;fill-rule:nonzero;stroke:none"
             d="m 0,0 -25.716,0.119 0.02,4.718 L 0.02,4.719 Z" /></g><g
           id="g262"><g
             id="g264" /><g
             id="g276"><g
               style="opacity:0.10000598"
               id="g274"
               clip-path="url(#clipPath268)"><g
                 id="g272"
                 transform="translate(247.0327,288.3481)"><path
                   id="path270"
                   style="fill:#000000;fill-opacity:1;fill-rule:nonzero;stroke:none"
                   d="m 0,0 -25.716,0.119 0.02,4.718 L 0.02,4.719 Z" /></g></g></g></g><g
           transform="translate(321.9947,264.1133)"
           id="g278"><path
             id="path280"
             style="fill:#e1e1e1;fill-opacity:1;fill-rule:nonzero;stroke:none"
             d="M 0,0 C -0.002,0.018 0.21,-0.001 0.593,0.112 0.956,0.231 1.541,0.531 1.859,1.245 2.03,1.597 2.048,2.024 2.032,2.513 2.03,2.999 2.028,3.528 2.026,4.102 2.024,5.253 2.021,6.577 2.019,8.066 c 0,1.493 -0.001,3.151 -0.001,4.964 v 1.39 c 0.021,0.478 -0.037,0.921 -0.292,1.32 -0.241,0.392 -0.631,0.703 -1.087,0.843 -0.448,0.141 -0.983,0.064 -1.511,0.086 -4.24,0.008 -9.065,0.018 -14.396,0.028 -21.347,0.079 -50.809,0.188 -83.349,0.309 -0.904,0.022 -1.739,-0.715 -1.826,-1.61 -0.03,-0.951 -0.015,-2.002 -0.026,-2.994 -0.009,-2.009 -0.017,-4.006 -0.026,-5.987 -0.004,-0.991 -0.009,-1.978 -0.013,-2.962 0.016,-0.491 -0.054,-1.004 0.063,-1.396 0.113,-0.413 0.377,-0.783 0.73,-1.025 0.366,-0.247 0.763,-0.338 1.243,-0.32 l 1.455,-0.007 c 0.968,-0.005 1.931,-0.01 2.891,-0.015 7.674,-0.041 15.077,-0.08 22.13,-0.117 14.1,-0.086 26.8,-0.164 37.472,-0.229 C -23.872,0.26 -15.246,0.191 -9.263,0.145 -6.295,0.109 -3.984,0.083 -2.395,0.064 -1.623,0.049 -1.03,0.038 -0.608,0.03 -0.206,0.019 0,0 0,0 0,0 -0.206,-0.017 -0.609,-0.023 -1.03,-0.028 -1.624,-0.034 -2.396,-0.041 c -1.588,-0.004 -3.9,-0.01 -6.868,-0.018 -5.983,0.009 -14.61,0.02 -25.262,0.035 -10.672,0.033 -23.371,0.073 -37.473,0.117 -7.052,0.028 -14.455,0.057 -22.13,0.087 -0.959,0.004 -1.923,0.008 -2.891,0.012 l -1.454,0.006 c -0.489,-0.026 -1.09,0.093 -1.532,0.408 -0.452,0.311 -0.791,0.783 -0.936,1.315 -0.149,0.56 -0.06,1.047 -0.082,1.535 0.003,0.983 0.007,1.97 0.011,2.961 0.008,1.982 0.016,3.978 0.024,5.988 0.012,1.017 -0.008,1.984 0.029,3.053 0.111,1.151 1.185,2.098 2.345,2.068 32.54,-0.179 62.002,-0.342 83.349,-0.461 5.331,-0.039 10.155,-0.074 14.395,-0.105 0.523,-0.028 1.052,0.057 1.593,-0.109 0.522,-0.164 0.964,-0.521 1.234,-0.97 0.287,-0.439 0.349,-1 0.32,-1.462 C 2.272,13.946 2.27,13.483 2.266,13.029 2.25,11.216 2.234,9.558 2.222,8.065 2.206,6.576 2.192,5.252 2.181,4.101 2.174,3.528 2.168,2.998 2.162,2.512 2.171,2.036 2.143,1.562 1.955,1.202 1.603,0.459 0.985,0.167 0.607,0.061 0.21,-0.038 0,0 0,0" /></g><g
           transform="translate(246.8433,243.4355)"
           id="g282"><path
             id="path284"
             style="fill:#ff4f5b;fill-opacity:1;fill-rule:nonzero;stroke:none"
             d="M 0,0 -25.716,0.118 -25.697,4.837 0.02,4.719 Z" /></g><g
           id="g286"><g
             id="g288" /><g
             id="g300"><g
               style="opacity:0.10000598"
               id="g298"
               clip-path="url(#clipPath292)"><g
                 id="g296"
                 transform="translate(246.8433,243.4355)"><path
                   id="path294"
                   style="fill:#000000;fill-opacity:1;fill-rule:nonzero;stroke:none"
                   d="M 0,0 -25.716,0.118 -25.697,4.837 0.02,4.719 Z" /></g></g></g></g><g
           transform="translate(321.8042,219.2002)"
           id="g302"><path
             id="path304"
             style="fill:#e1e1e1;fill-opacity:1;fill-rule:nonzero;stroke:none"
             d="M 0,0 C -0.001,0.018 0.211,-0.001 0.593,0.111 0.957,0.23 1.541,0.531 1.859,1.245 2.03,1.597 2.048,2.024 2.032,2.513 2.03,2.999 2.028,3.528 2.026,4.102 2.024,5.253 2.022,6.577 2.02,8.065 2.019,9.559 2.019,11.217 2.018,13.03 c 0,0.453 0.001,0.917 0.001,1.391 0.02,0.477 -0.037,0.92 -0.292,1.319 -0.242,0.392 -0.631,0.703 -1.087,0.843 -0.448,0.141 -0.983,0.064 -1.512,0.086 -4.239,0.009 -9.064,0.018 -14.395,0.028 -21.348,0.079 -50.809,0.189 -83.349,0.309 -0.905,0.022 -1.739,-0.715 -1.826,-1.61 -0.03,-0.951 -0.016,-2.001 -0.026,-2.994 -0.009,-2.008 -0.017,-4.006 -0.026,-5.987 -0.005,-0.991 -0.009,-1.978 -0.013,-2.962 0.016,-0.49 -0.054,-1.003 0.062,-1.395 0.113,-0.414 0.377,-0.784 0.73,-1.026 0.367,-0.247 0.764,-0.339 1.244,-0.32 l 1.454,-0.007 c 0.968,-0.005 1.932,-0.01 2.891,-0.015 7.674,-0.041 15.077,-0.08 22.13,-0.117 14.1,-0.087 26.8,-0.164 37.472,-0.229 C -23.872,0.26 -15.246,0.191 -9.263,0.145 -6.295,0.109 -3.983,0.082 -2.395,0.063 -1.623,0.049 -1.029,0.038 -0.608,0.029 -0.206,0.019 0,0 0,0 c 0,0 -0.206,-0.017 -0.608,-0.023 -0.422,-0.004 -1.015,-0.01 -1.787,-0.018 -1.589,-0.004 -3.901,-0.01 -6.869,-0.018 -5.983,0.009 -14.609,0.02 -25.262,0.035 -10.672,0.033 -23.371,0.073 -37.472,0.117 -7.053,0.028 -14.456,0.056 -22.13,0.087 -0.96,0.004 -1.923,0.008 -2.891,0.012 l -1.455,0.006 c -0.489,-0.026 -1.09,0.093 -1.531,0.408 -0.453,0.311 -0.791,0.784 -0.937,1.315 -0.149,0.56 -0.06,1.048 -0.082,1.535 0.004,0.983 0.008,1.971 0.012,2.961 0.008,1.982 0.016,3.979 0.024,5.988 0.011,1.018 -0.008,1.984 0.029,3.053 0.111,1.151 1.185,2.098 2.345,2.068 32.54,-0.179 62.001,-0.342 83.349,-0.461 5.33,-0.039 10.155,-0.074 14.395,-0.105 0.523,-0.027 1.052,0.057 1.593,-0.109 0.521,-0.164 0.963,-0.522 1.234,-0.97 0.287,-0.44 0.349,-1 0.32,-1.462 C 2.273,13.946 2.27,13.482 2.266,13.029 2.25,11.216 2.235,9.558 2.223,8.065 2.207,6.576 2.193,5.252 2.182,4.101 2.175,3.528 2.168,2.998 2.162,2.513 2.171,2.035 2.143,1.562 1.955,1.201 1.604,0.459 0.985,0.166 0.608,0.061 0.211,-0.037 0,0 0,0" /></g><g
           transform="translate(275.2622,270.4072)"
           id="g306"><path
             id="path308"
             style="fill:#ff4f5b;fill-opacity:1;fill-rule:nonzero;stroke:none"
             d="M 0,0 -47.043,0.217 -47.025,4.628 0.019,4.411 Z" /></g><g
           id="g310"><g
             id="g312" /><g
             id="g324"><g
               style="opacity:0.19999701"
               id="g322"
               clip-path="url(#clipPath316)"><g
                 id="g320"
                 transform="translate(275.2622,270.4072)"><path
                   id="path318"
                   style="fill:#ffffff;fill-opacity:1;fill-rule:nonzero;stroke:none"
                   d="M 0,0 -47.043,0.217 -47.025,4.628 0.019,4.411 Z" /></g></g></g></g><g
           transform="translate(232.5113,227.3633)"
           id="g326"><path
             id="path328"
             style="fill:#ff4f5b;fill-opacity:1;fill-rule:nonzero;stroke:none"
             d="m 0,0 c -0.005,-1.211 -0.93,-2.188 -2.066,-2.184 -1.136,0.006 -2.052,0.993 -2.047,2.204 0.005,1.21 0.93,2.189 2.066,2.183 C -0.912,2.198 0.005,1.212 0,0" /></g><g
           transform="translate(238.8843,227.334)"
           id="g330"><path
             id="path332"
             style="fill:#ff4f5b;fill-opacity:1;fill-rule:nonzero;stroke:none"
             d="m 0,0 c -0.005,-1.211 -0.93,-2.188 -2.066,-2.184 -1.136,0.005 -2.052,0.992 -2.047,2.204 0.005,1.21 0.93,2.188 2.066,2.183 C -0.912,2.198 0.005,1.212 0,0" /></g><g
           transform="translate(245.2569,227.3047)"
           id="g334"><path
             id="path336"
             style="fill:#ff4f5b;fill-opacity:1;fill-rule:nonzero;stroke:none"
             d="m 0,0 c -0.005,-1.211 -0.93,-2.189 -2.066,-2.184 -1.136,0.005 -2.052,0.992 -2.047,2.204 0.005,1.21 0.93,2.188 2.066,2.183 C -0.912,2.198 0.005,1.212 0,0" /></g><g
           transform="translate(251.6294,227.2754)"
           id="g338"><path
             id="path340"
             style="fill:#ff4f5b;fill-opacity:1;fill-rule:nonzero;stroke:none"
             d="m 0,0 c -0.005,-1.211 -0.93,-2.189 -2.065,-2.184 -1.136,0.005 -2.053,0.992 -2.048,2.204 0.005,1.21 0.93,2.188 2.066,2.183 C -0.911,2.197 0.006,1.211 0,0" /></g><g
           transform="translate(258.0025,227.2461)"
           id="g342"><path
             id="path344"
             style="fill:#ff4f5b;fill-opacity:1;fill-rule:nonzero;stroke:none"
             d="m 0,0 c -0.005,-1.212 -0.93,-2.189 -2.065,-2.184 -1.136,0.005 -2.053,0.992 -2.048,2.203 0.006,1.211 0.93,2.189 2.066,2.184 C -0.911,2.197 0.005,1.211 0,0" /></g><g
           transform="translate(264.3755,227.2168)"
           id="g346"><path
             id="path348"
             style="fill:#ff4f5b;fill-opacity:1;fill-rule:nonzero;stroke:none"
             d="m 0,0 c -0.005,-1.212 -0.93,-2.189 -2.066,-2.184 -1.136,0.005 -2.052,0.992 -2.047,2.203 0.005,1.211 0.929,2.189 2.065,2.184 C -0.911,2.197 0.005,1.211 0,0" /></g><g
           transform="translate(270.7486,227.1875)"
           id="g350"><path
             id="path352"
             style="fill:#ff4f5b;fill-opacity:1;fill-rule:nonzero;stroke:none"
             d="m 0,0 c -0.006,-1.212 -0.931,-2.189 -2.066,-2.185 -1.136,0.006 -2.052,0.993 -2.047,2.204 0.005,1.211 0.929,2.189 2.065,2.183 C -0.912,2.197 0.005,1.211 0,0" /></g><g
           transform="translate(277.1206,227.1582)"
           id="g354"><path
             id="path356"
             style="fill:#ff4f5b;fill-opacity:1;fill-rule:nonzero;stroke:none"
             d="m 0,0 c -0.005,-1.212 -0.93,-2.189 -2.065,-2.185 -1.136,0.006 -2.053,0.992 -2.047,2.204 0.005,1.21 0.929,2.189 2.065,2.183 C -0.911,2.197 0.006,1.211 0,0" /></g><g
           transform="translate(283.4937,227.1279)"
           id="g358"><path
             id="path360"
             style="fill:#ff4f5b;fill-opacity:1;fill-rule:nonzero;stroke:none"
             d="m 0,0 c -0.005,-1.211 -0.93,-2.188 -2.065,-2.184 -1.136,0.005 -2.053,0.992 -2.048,2.204 0.006,1.21 0.93,2.188 2.066,2.183 C -0.911,2.198 0.006,1.212 0,0" /></g><g
           id="g362"><g
             id="g364" /><g
             id="g408"><g
               style="opacity:0.19999701"
               id="g406"
               clip-path="url(#clipPath368)"><g
                 id="g372"
                 transform="translate(232.5113,227.3633)"><path
                   id="path370"
                   style="fill:#ffffff;fill-opacity:1;fill-rule:nonzero;stroke:none"
                   d="m 0,0 c -0.005,-1.211 -0.93,-2.188 -2.066,-2.184 -1.136,0.006 -2.052,0.993 -2.047,2.204 0.005,1.21 0.93,2.189 2.066,2.183 C -0.912,2.198 0.005,1.212 0,0" /></g><g
                 id="g376"
                 transform="translate(238.8843,227.334)"><path
                   id="path374"
                   style="fill:#ffffff;fill-opacity:1;fill-rule:nonzero;stroke:none"
                   d="m 0,0 c -0.005,-1.211 -0.93,-2.188 -2.066,-2.184 -1.136,0.005 -2.052,0.992 -2.047,2.204 0.005,1.21 0.93,2.188 2.066,2.183 C -0.912,2.198 0.005,1.212 0,0" /></g><g
                 id="g380"
                 transform="translate(245.2569,227.3047)"><path
                   id="path378"
                   style="fill:#ffffff;fill-opacity:1;fill-rule:nonzero;stroke:none"
                   d="m 0,0 c -0.005,-1.211 -0.93,-2.189 -2.066,-2.184 -1.136,0.005 -2.052,0.992 -2.047,2.204 0.005,1.21 0.93,2.188 2.066,2.183 C -0.912,2.198 0.005,1.212 0,0" /></g><g
                 id="g384"
                 transform="translate(251.6294,227.2754)"><path
                   id="path382"
                   style="fill:#ffffff;fill-opacity:1;fill-rule:nonzero;stroke:none"
                   d="m 0,0 c -0.005,-1.211 -0.93,-2.189 -2.065,-2.184 -1.136,0.005 -2.053,0.992 -2.048,2.204 0.005,1.21 0.93,2.188 2.066,2.183 C -0.911,2.197 0.006,1.211 0,0" /></g><g
                 id="g388"
                 transform="translate(258.0025,227.2461)"><path
                   id="path386"
                   style="fill:#ffffff;fill-opacity:1;fill-rule:nonzero;stroke:none"
                   d="m 0,0 c -0.005,-1.212 -0.93,-2.189 -2.065,-2.184 -1.136,0.005 -2.053,0.992 -2.048,2.203 0.006,1.211 0.93,2.189 2.066,2.184 C -0.911,2.197 0.005,1.211 0,0" /></g><g
                 id="g392"
                 transform="translate(264.3755,227.2168)"><path
                   id="path390"
                   style="fill:#ffffff;fill-opacity:1;fill-rule:nonzero;stroke:none"
                   d="m 0,0 c -0.005,-1.212 -0.93,-2.189 -2.066,-2.184 -1.136,0.005 -2.052,0.992 -2.047,2.203 0.005,1.211 0.929,2.189 2.065,2.184 C -0.911,2.197 0.005,1.211 0,0" /></g><g
                 id="g396"
                 transform="translate(270.7486,227.1875)"><path
                   id="path394"
                   style="fill:#ffffff;fill-opacity:1;fill-rule:nonzero;stroke:none"
                   d="m 0,0 c -0.006,-1.212 -0.931,-2.189 -2.066,-2.185 -1.136,0.006 -2.052,0.993 -2.047,2.204 0.005,1.211 0.929,2.189 2.065,2.183 C -0.912,2.197 0.005,1.211 0,0" /></g><g
                 id="g400"
                 transform="translate(277.1206,227.1582)"><path
                   id="path398"
                   style="fill:#ffffff;fill-opacity:1;fill-rule:nonzero;stroke:none"
                   d="m 0,0 c -0.005,-1.212 -0.93,-2.189 -2.065,-2.185 -1.136,0.006 -2.053,0.992 -2.047,2.204 0.005,1.21 0.929,2.189 2.065,2.183 C -0.911,2.197 0.006,1.211 0,0" /></g><g
                 id="g404"
                 transform="translate(283.4937,227.1279)"><path
                   id="path402"
                   style="fill:#ffffff;fill-opacity:1;fill-rule:nonzero;stroke:none"
                   d="m 0,0 c -0.005,-1.211 -0.93,-2.188 -2.065,-2.184 -1.136,0.005 -2.053,0.992 -2.048,2.204 0.006,1.21 0.93,2.188 2.066,2.183 C -0.911,2.198 0.006,1.212 0,0" /></g></g></g></g><g
           transform="translate(274.4429,371.4946)"
           id="g410"><path
             id="path412"
             style="fill:#ff4f5b;fill-opacity:1;fill-rule:nonzero;stroke:none"
             d="M 0,0 C 1.346,0.564 2.303,1.952 2.311,3.587 2.319,5.729 0.698,7.474 -1.311,7.483 -3.318,7.492 -4.954,5.763 -4.963,3.621 -4.97,1.971 -4.006,0.566 -2.646,0 -8.242,-0.843 -7.988,-6.926 -7.988,-6.926 L 5.246,-6.987 c 0,0 0.302,6.149 -5.246,6.987" /></g><g
           id="g414"><g
             id="g416" /><g
             id="g428"><g
               style="opacity:0.10000598"
               id="g426"
               clip-path="url(#clipPath420)"><g
                 id="g424"
                 transform="translate(274.4429,371.4946)"><path
                   id="path422"
                   style="fill:#000000;fill-opacity:1;fill-rule:nonzero;stroke:none"
                   d="M 0,0 C 1.346,0.564 2.303,1.952 2.311,3.587 2.319,5.729 0.698,7.474 -1.311,7.483 -3.318,7.492 -4.954,5.763 -4.963,3.621 -4.97,1.971 -4.006,0.566 -2.646,0 -8.242,-0.843 -7.988,-6.926 -7.988,-6.926 L 5.246,-6.987 c 0,0 0.302,6.149 -5.246,6.987" /></g></g></g></g><g
           transform="translate(295.9243,354.8833)"
           id="g430"><path
             id="path432"
             style="fill:#ff4f5b;fill-opacity:1;fill-rule:nonzero;stroke:none"
             d="M 0,0 -47.192,0.218 -47.168,5.86 0.023,5.643 Z" /></g><g
           id="g434"><g
             id="g436" /><g
             id="g448"><g
               style="opacity:0.19999701"
               id="g446"
               clip-path="url(#clipPath440)"><g
                 id="g444"
                 transform="translate(295.9243,354.8833)"><path
                   id="path442"
                   style="fill:#ffffff;fill-opacity:1;fill-rule:nonzero;stroke:none"
                   d="M 0,0 -47.192,0.218 -47.168,5.86 0.023,5.643 Z" /></g></g></g></g></g></g><g
       id="g450"><g
         clip-path="url(#clipPath456)"
         id="g452"><g
           transform="translate(122.4654,331.3232)"
           id="g458"><path
             id="path460"
             style="fill:#ff4f5b;fill-opacity:1;fill-rule:nonzero;stroke:none"
             d="m 0,0 c 0,-0.01 -0.158,-0.027 -0.464,-0.052 -0.331,-0.024 -0.783,-0.057 -1.362,-0.099 -0.601,-0.011 -1.331,-0.141 -2.194,-0.293 -0.428,-0.087 -0.902,-0.122 -1.386,-0.265 -0.487,-0.135 -1.003,-0.278 -1.55,-0.43 -2.158,-0.681 -4.757,-1.762 -7.374,-3.657 -2.61,-1.881 -5.221,-4.57 -7.256,-8.077 -1.07,-1.724 -1.846,-3.715 -2.543,-5.808 -0.567,-2.13 -1.07,-4.393 -1.107,-6.777 -0.107,-1.189 0.013,-2.398 0.064,-3.625 0.032,-0.614 0.165,-1.223 0.243,-1.841 0.084,-0.619 0.175,-1.242 0.35,-1.852 0.507,-2.486 1.519,-4.923 2.8,-7.258 2.561,-4.689 6.865,-8.727 12.18,-11.068 2.66,-1.173 5.599,-1.806 8.589,-1.929 2.993,-0.189 6.059,0.291 8.966,1.291 l 0.879,0.323 0.116,0.042 0.105,-0.053 c 4.303,-2.185 8.523,-4.327 12.612,-6.403 l -0.375,-0.32 c -1.346,4.18 -2.652,8.233 -3.904,12.121 l -0.049,0.15 0.112,0.111 c 3.178,3.183 5.393,7.05 6.621,11.009 1.231,3.971 1.442,8.015 0.961,11.721 -0.48,3.714 -1.695,7.091 -3.313,9.933 -1.618,2.85 -3.63,5.166 -5.695,6.973 C 13.937,-4.338 11.77,-3.122 9.83,-2.191 7.842,-1.359 6.07,-0.826 4.597,-0.542 3.86,-0.417 3.206,-0.305 2.635,-0.208 2.068,-0.168 1.586,-0.135 1.187,-0.107 0.815,-0.078 0.522,-0.056 0.301,-0.039 0.102,-0.021 0,-0.008 0,0 0,0.007 0.102,0.009 0.302,0.006 0.524,0 0.818,-0.008 1.192,-0.019 c 0.401,-0.016 0.887,-0.036 1.457,-0.059 0.576,-0.086 1.237,-0.184 1.98,-0.295 1.488,-0.26 3.283,-0.772 5.302,-1.589 1.97,-0.917 4.173,-2.127 6.303,-3.927 2.106,-1.812 4.161,-4.145 5.82,-7.026 1.659,-2.873 2.911,-6.296 3.415,-10.067 0.504,-3.762 0.306,-7.873 -0.934,-11.919 -1.238,-4.034 -3.484,-7.981 -6.719,-11.232 l 0.063,0.261 c 1.258,-3.886 2.57,-7.937 3.923,-12.115 l 0.197,-0.611 -0.572,0.291 c -4.091,2.074 -8.312,4.213 -12.616,6.395 l 0.221,-0.01 -0.899,-0.33 c -2.971,-1.022 -6.107,-1.512 -9.165,-1.317 -3.055,0.127 -6.061,0.778 -8.777,1.98 -5.429,2.397 -9.807,6.528 -12.405,11.31 -1.3,2.383 -2.321,4.867 -2.829,7.398 -0.176,0.622 -0.267,1.255 -0.351,1.885 -0.077,0.629 -0.209,1.248 -0.24,1.872 -0.047,1.249 -0.163,2.478 -0.051,3.685 0.049,2.422 0.568,4.72 1.156,6.879 0.718,2.123 1.517,4.138 2.612,5.881 2.086,3.545 4.752,6.25 7.411,8.129 2.664,1.894 5.304,2.958 7.49,3.613 0.553,0.145 1.077,0.281 1.569,0.409 0.489,0.136 0.968,0.164 1.401,0.242 0.871,0.137 1.607,0.251 2.212,0.244 0.582,0.019 1.036,0.034 1.369,0.045 C -0.158,0.01 0,0.009 0,0" /></g><g
           transform="translate(128.168,307.9746)"
           id="g462"><path
             id="path464"
             style="fill:#ff4f5b;fill-opacity:1;fill-rule:nonzero;stroke:none"
             d="M 0,0 H -1.848 L -5.881,5.621 V 9.31 c 0,0 -2.857,0.175 -2.521,-4.655 0.337,-4.831 -0.027,-3.601 -0.027,-3.601 0,0 -6.066,-0.023 -6.57,-0.55 -0.366,-0.383 -0.532,-6.408 -0.595,-9.675 -0.032,-1.645 0.977,-3.175 2.507,-3.564 0.217,-0.056 0.437,-0.088 0.652,-0.088 1.513,0 9.243,1.23 9.243,1.23 H 0 Z" /></g><g
           transform="translate(133.4585,308.9873)"
           id="g466"><path
             id="path468"
             style="fill:#ff4f5b;fill-opacity:1;fill-rule:nonzero;stroke:none"
             d="M 0,0 -1.137,-12.64 H -4.302 V -0.254 Z" /></g></g></g><g
       id="g470"><g
         clip-path="url(#clipPath476)"
         id="g472"><g
           transform="translate(171.1499,51.6592)"
           id="g478"><path
             id="path480"
             style="fill:#ff4f5b;fill-opacity:1;fill-rule:nonzero;stroke:none"
             d="m 0,0 v 8.556 l -15.331,0.102 -0.127,-12.925 0.951,-0.071 C -10.278,-4.611 7.013,-5.009 9.847,-4.132 13.007,-3.153 0,0 0,0" /></g><g
           transform="translate(181.3594,48.3301)"
           id="g482"><path
             id="path484"
             style="fill:#1a2e35;fill-opacity:1;fill-rule:nonzero;stroke:none"
             d="m 0,0 c 0,-0.145 -5.735,-0.261 -12.807,-0.261 -7.075,0 -12.808,0.116 -12.808,0.261 0,0.144 5.733,0.26 12.808,0.26 C -5.735,0.26 0,0.144 0,0" /></g><g
           transform="translate(171.4195,49.9131)"
           id="g486"><path
             id="path488"
             style="fill:#1a2e35;fill-opacity:1;fill-rule:nonzero;stroke:none"
             d="M 0,0 C -0.126,0.066 -0.018,0.519 0.312,0.964 0.64,1.411 1.041,1.648 1.141,1.548 1.244,1.444 1.033,1.068 0.731,0.655 0.427,0.244 0.128,-0.068 0,0" /></g><g
           transform="translate(172.3975,49.3496)"
           id="g490"><path
             id="path492"
             style="fill:#1a2e35;fill-opacity:1;fill-rule:nonzero;stroke:none"
             d="m 0,0 c -0.133,0.05 -0.064,0.557 0.237,1.09 0.3,0.535 0.699,0.855 0.81,0.767 C 1.162,1.768 0.969,1.331 0.691,0.834 0.411,0.339 0.136,-0.053 0,0" /></g><g
           transform="translate(160.3628,48.3681)"
           id="g494"><path
             id="path496"
             style="fill:#1a2e35;fill-opacity:1;fill-rule:nonzero;stroke:none"
             d="m 0,0 c -0.06,-0.042 -0.288,0.183 -0.62,0.56 -0.334,0.373 -0.771,0.901 -1.344,1.346 -0.57,0.445 -1.196,0.667 -1.659,0.725 -0.466,0.062 -0.772,-0.01 -0.798,0.065 -0.027,0.056 0.258,0.27 0.81,0.303 0.545,0.037 1.314,-0.17 1.964,-0.68 C -1,1.814 -0.586,1.212 -0.323,0.776 -0.061,0.336 0.058,0.04 0,0" /></g><g
           transform="translate(171.4659,51.5215)"
           id="g498"><path
             id="path500"
             style="fill:#1a2e35;fill-opacity:1;fill-rule:nonzero;stroke:none"
             d="M 0,0 C 0.075,-0.121 -0.188,-0.418 -0.625,-0.578 -1.062,-0.74 -1.456,-0.684 -1.477,-0.543 -1.5,-0.399 -1.188,-0.232 -0.805,-0.09 -0.421,0.051 -0.076,0.124 0,0" /></g><g
           transform="translate(171.2256,52.3486)"
           id="g502"><path
             id="path504"
             style="fill:#1a2e35;fill-opacity:1;fill-rule:nonzero;stroke:none"
             d="m 0,0 c 0.014,-0.144 -0.395,-0.267 -0.912,-0.273 -0.518,-0.007 -0.93,0.104 -0.92,0.248 0.01,0.143 0.418,0.265 0.913,0.272 C -0.426,0.254 -0.014,0.143 0,0" /></g><g
           transform="translate(208.9014,51.6592)"
           id="g506"><path
             id="path508"
             style="fill:#ff4f5b;fill-opacity:1;fill-rule:nonzero;stroke:none"
             d="m 0,0 v 8.556 l -15.331,0.102 -0.127,-12.794 0.951,-0.07 C -10.278,-4.479 7.014,-5.009 9.847,-4.132 13.007,-3.153 0,0 0,0" /></g><g
           transform="translate(219.1109,48.3105)"
           id="g510"><path
             id="path512"
             style="fill:#1a2e35;fill-opacity:1;fill-rule:nonzero;stroke:none"
             d="m 0,0 c 0,-0.144 -5.734,-0.261 -12.807,-0.261 -7.075,0 -12.808,0.117 -12.808,0.261 0,0.144 5.733,0.261 12.808,0.261 C -5.734,0.261 0,0.144 0,0" /></g><g
           transform="translate(209.1714,49.9131)"
           id="g514"><path
             id="path516"
             style="fill:#1a2e35;fill-opacity:1;fill-rule:nonzero;stroke:none"
             d="M 0,0 C -0.126,0.066 -0.018,0.519 0.312,0.964 0.64,1.411 1.041,1.648 1.141,1.548 1.244,1.444 1.033,1.068 0.731,0.655 0.427,0.244 0.128,-0.068 0,0" /></g><g
           transform="translate(210.1494,49.3496)"
           id="g518"><path
             id="path520"
             style="fill:#1a2e35;fill-opacity:1;fill-rule:nonzero;stroke:none"
             d="m 0,0 c -0.133,0.05 -0.064,0.557 0.237,1.09 0.3,0.535 0.699,0.855 0.81,0.767 C 1.162,1.768 0.969,1.331 0.691,0.834 0.41,0.339 0.136,-0.053 0,0" /></g><g
           transform="translate(198.1143,48.3681)"
           id="g522"><path
             id="path524"
             style="fill:#1a2e35;fill-opacity:1;fill-rule:nonzero;stroke:none"
             d="m 0,0 c -0.06,-0.042 -0.288,0.183 -0.62,0.56 -0.333,0.373 -0.771,0.901 -1.344,1.346 -0.569,0.445 -1.196,0.667 -1.659,0.725 -0.466,0.062 -0.772,-0.01 -0.798,0.065 -0.027,0.056 0.258,0.27 0.81,0.303 0.545,0.037 1.314,-0.17 1.965,-0.68 0.647,-0.505 1.06,-1.107 1.324,-1.543 C -0.061,0.336 0.058,0.04 0,0" /></g><g
           transform="translate(209.2178,51.5215)"
           id="g526"><path
             id="path528"
             style="fill:#1a2e35;fill-opacity:1;fill-rule:nonzero;stroke:none"
             d="M 0,0 C 0.075,-0.121 -0.188,-0.418 -0.625,-0.578 -1.063,-0.74 -1.456,-0.684 -1.477,-0.543 -1.5,-0.399 -1.189,-0.232 -0.806,-0.09 -0.421,0.051 -0.076,0.124 0,0" /></g><g
           transform="translate(208.9771,52.3486)"
           id="g530"><path
             id="path532"
             style="fill:#1a2e35;fill-opacity:1;fill-rule:nonzero;stroke:none"
             d="m 0,0 c 0.014,-0.144 -0.395,-0.267 -0.912,-0.273 -0.518,-0.007 -0.929,0.104 -0.92,0.248 0.011,0.143 0.419,0.265 0.913,0.272 C -0.425,0.254 -0.014,0.143 0,0" /></g><g
           transform="translate(265.3775,305.5557)"
           id="g534"><path
             id="path536"
             style="fill:#ffbf9d;fill-opacity:1;fill-rule:nonzero;stroke:none"
             d="m 0,0 c -0.4,0.412 -1.384,0.218 -1.384,0.218 0,0 0.172,1.168 -0.01,1.734 -0.18,0.565 -1.441,0.456 -1.441,0.456 0,0 -0.078,0.544 0.032,1.422 0.029,0.219 -0.093,0.382 -0.293,0.503 -0.596,0.361 -1.883,0.343 -1.883,0.343 -0.773,0.552 2.351,4.92 3.509,6.319 1.145,1.381 0.952,2.487 -0.081,2.486 -0.704,-0.002 -4.35,-4.2 -5.464,-5.61 -1.112,-1.409 -4.095,-5.33 -4.197,-2.201 -0.101,3.129 -1.359,5.496 -2.144,5.9 -0.786,0.403 -1.634,-0.543 -1.199,-1.412 0.351,-0.702 0.574,-2.055 0.7,-3.078 0.103,-0.844 0.069,-1.7 -0.116,-2.53 -0.522,-2.344 -1.082,-3.866 -1.346,-4.516 l -0.077,0.043 c 0,0 -21.827,-20.929 -23.4,-22.423 -1.416,-1.344 -29.778,1.59 -35.46,2.193 -1.553,0.174 -3.853,0.486 -5.846,0.399 -2.464,-0.108 -2.903,-0.458 -5.37,-0.491 -7.553,-0.101 -13.848,-0.837 -18.533,-1.63 -5.664,-0.958 -10.308,-4.989 -12.061,-10.46 -5.735,-17.898 -18.709,-60.269 -21.021,-84.072 -1.821,-3.424 -3.856,-7.423 -4.683,-9.673 -1.607,-4.375 -1.217,-4.525 -0.675,-4.625 1.453,-0.269 3.117,7.588 3.739,5.692 0.622,-1.896 -3.152,-9.373 -1.621,-9.592 1.996,-0.285 3.587,7.972 3.773,8.662 0.181,0.669 1.188,0.443 0.987,-0.17 -0.289,-0.881 -3.103,-10.211 -1.146,-10.51 1.085,-0.166 1.202,1.81 1.202,1.81 0,0 1.989,8.923 2.908,8.751 0.934,-0.174 -0.058,-5.453 -0.518,-7.209 -0.455,-1.735 0.186,-2.657 1.121,-2.22 0.639,0.298 2.175,5.643 2.59,7.39 0.415,1.747 1.466,6.56 2.878,3.766 1.412,-2.794 3.55,-4.41 4.432,-4.445 0.883,-0.034 1.253,1.18 0.492,1.786 -0.616,0.488 -1.388,1.621 -1.933,2.496 -0.45,0.721 -0.78,1.512 -0.962,2.342 -0.703,3.2 -0.697,5.06 -0.697,5.06 l -0.163,1.029 c 2.239,11.092 8.694,43.637 17.966,64.429 l 3.818,-7.857 1.657,-5.817 -10.175,-25.138 43.413,0.572 -6.472,24.939 7.863,26.004 v 0.001 c 8.51,-0.19 30.367,-0.507 34.04,1.135 4.579,2.046 28.278,31.92 28.278,31.92 h -0.001 c 1.601,1.275 3.229,2.647 4.43,3.843 0,0 1.412,1.143 0.544,2.036" /></g><g
           transform="translate(151.3916,233.6133)"
           id="g538"><path
             id="path540"
             style="fill:#ff4f5b;fill-opacity:1;fill-rule:nonzero;stroke:none"
             d="m 0,0 c 1.257,4.299 7.729,25.557 7.729,25.557 0,0 3.176,-17.331 2.341,-19.418 C 9.108,3.733 7.34,0.981 7.34,0.981 0,-10.197 0.963,-15.784 0.963,-15.784 l 44.341,1.352 c 0.108,6.202 -3.563,20.619 -4.33,22.915 -0.768,2.297 1.778,9.836 1.778,9.836 0,0 5.011,5.089 4.817,7.708 -0.391,5.276 -0.874,6.981 -0.874,6.981 L 73.676,32.015 72.828,50.321 34.045,54.202 C 32.703,50.383 20.49,52.254 20.49,52.254 7.305,51.821 6.507,49.396 1.009,45.139 -4.489,40.882 -13.544,4.32 -13.544,4.32 Z" /></g><g
           transform="translate(177.6148,237.9375)"
           id="g542"><path
             id="path544"
             style="fill:#1a2e35;fill-opacity:1;fill-rule:nonzero;stroke:none"
             d="m 0,0 c -0.001,-0.069 -0.893,-0.128 -2.337,-0.118 -1.443,0.009 -3.437,0.098 -5.63,0.318 -2.193,0.222 -4.165,0.531 -5.581,0.81 -1.417,0.278 -2.28,0.512 -2.266,0.581 0.013,0.073 0.899,-0.034 2.325,-0.218 1.426,-0.185 3.394,-0.435 5.574,-0.654 C -5.735,0.5 -3.756,0.353 -2.322,0.25 -0.888,0.146 0.001,0.075 0,0" /></g><g
           transform="translate(180.6504,241.709)"
           id="g546"><path
             id="path548"
             style="fill:#1a2e35;fill-opacity:1;fill-rule:nonzero;stroke:none"
             d="m 0,0 c 0.019,-0.063 -0.896,-0.411 -2.421,-0.825 -1.524,-0.413 -3.664,-0.87 -6.061,-1.156 -2.397,-0.284 -4.586,-0.342 -6.164,-0.296 -1.58,0.045 -2.55,0.17 -2.547,0.235 0.004,0.077 0.978,0.084 2.546,0.133 1.567,0.049 3.73,0.164 6.104,0.445 2.372,0.283 4.501,0.678 6.037,0.997 C -0.97,-0.147 -0.021,0.074 0,0" /></g><g
           transform="translate(195.5655,258.5298)"
           id="g550"><path
             id="path552"
             style="fill:#1a2e35;fill-opacity:1;fill-rule:nonzero;stroke:none"
             d="m 0,0 c 0.069,-0.015 -0.045,-0.879 -0.303,-2.262 -0.258,-1.383 -0.664,-3.283 -1.175,-5.367 -0.511,-2.085 -1.031,-3.958 -1.442,-5.303 -0.411,-1.346 -0.709,-2.165 -0.778,-2.146 -0.07,0.02 0.103,0.873 0.423,2.242 0.378,1.56 0.812,3.352 1.292,5.331 0.49,1.975 0.934,3.764 1.32,5.323 C -0.313,-0.822 -0.071,0.015 0,0" /></g><g
           transform="translate(151.857,236.1601)"
           id="g554"><path
             id="path556"
             style="fill:#1a2e35;fill-opacity:1;fill-rule:nonzero;stroke:none"
             d="m 0,0 c -0.038,-0.139 -3.096,0.574 -6.83,1.593 -3.735,1.019 -6.731,1.957 -6.693,2.096 0.038,0.139 3.095,-0.575 6.83,-1.593 C -2.959,1.077 0.038,0.139 0,0" /></g><g
           transform="translate(198.5747,266.8555)"
           id="g558"><path
             id="path560"
             style="fill:#1a2e35;fill-opacity:1;fill-rule:nonzero;stroke:none"
             d="m 0,0 c 0,-0.024 -0.411,-0.067 -1.148,0.006 -0.733,0.076 -1.806,0.246 -3.049,0.727 -1.244,0.466 -2.658,1.245 -3.979,2.423 -1.322,1.173 -2.502,2.787 -3.255,4.687 -0.765,1.897 -1.016,3.875 -0.896,5.636 0.116,1.758 0.581,3.347 1.369,4.46 0.778,1.128 1.811,1.675 2.53,1.864 0.365,0.096 0.658,0.119 0.854,0.114 0.197,-0.005 0.299,-0.026 0.298,-0.042 0.003,-0.05 -0.414,-0.026 -1.091,-0.265 -0.664,-0.238 -1.598,-0.799 -2.286,-1.876 -1.361,-2.14 -1.741,-6.047 -0.294,-9.698 0.725,-1.826 1.84,-3.377 3.094,-4.525 C -6.6,2.358 -5.252,1.571 -4.06,1.075 -1.657,0.078 0.018,0.111 0,0" /></g><g
           transform="translate(221.8843,265.9932)"
           id="g562"><path
             id="path564"
             style="fill:#1a2e35;fill-opacity:1;fill-rule:nonzero;stroke:none"
             d="m 0,0 c -0.144,0 -0.252,4.126 -0.242,9.215 0.01,5.091 0.135,9.215 0.279,9.215 0.144,0 0.252,-4.126 0.242,-9.216 C 0.269,4.125 0.144,0 0,0" /></g><g
           transform="translate(185.1978,286.7002)"
           id="g566"><path
             id="path568"
             style="fill:#ffbf9d;fill-opacity:1;fill-rule:nonzero;stroke:none"
             d="m 0,0 c 0.109,2.232 0.343,4.753 0.343,4.753 0,0 5.518,0.609 5.853,6.309 0.335,5.701 0,18.846 0,18.846 L -3.854,35.026 -14.911,26.302 -13.235,-2.2 -3.062,-2.847 C -1.459,-2.949 -0.082,-1.671 0,0" /></g><g
           transform="translate(186.1924,302.272)"
           id="g570"><path
             id="path572"
             style="fill:#ff9a6c;fill-opacity:1;fill-rule:nonzero;stroke:none"
             d="m 0,0 c 0.016,-0.004 0.017,-0.106 -0.087,-0.245 -0.102,-0.134 -0.325,-0.286 -0.635,-0.28 -0.641,0.031 -1.257,0.739 -1.485,1.603 -0.113,0.439 -0.113,0.884 -0.027,1.267 0.068,0.378 0.286,0.756 0.6,0.859 0.15,0.056 0.306,0.05 0.425,-0.01 C -1.092,3.136 -1.021,3.046 -0.983,2.965 -0.909,2.795 -0.967,2.692 -0.981,2.7 -1.004,2.702 -0.998,2.795 -1.082,2.902 -1.16,3.011 -1.348,3.11 -1.556,3.002 -1.768,2.906 -1.914,2.635 -1.967,2.288 -2.03,1.943 -2.022,1.549 -1.921,1.158 c 0.2,-0.775 0.737,-1.408 1.214,-1.466 0.237,-0.03 0.433,0.061 0.539,0.148 C -0.06,-0.071 -0.021,0.009 0,0" /></g><g
           transform="translate(194.8213,319.6855)"
           id="g574"><path
             id="path576"
             style="fill:#1a2e35;fill-opacity:1;fill-rule:nonzero;stroke:none"
             d="m 0,0 c -0.769,2.625 -3.558,3.928 -6.1,4.648 -3.866,1.096 -8.056,1.581 -11.834,0.19 -3.778,-1.391 -8.321,-3.838 -8.32,-8.012 -2.23,0.183 -3.504,-1.771 -4.39,-4.192 -0.523,-1.429 -0.866,-3.022 -0.948,-4.599 l -0.036,0.012 c -0.287,-5.463 -1.809,-12.99 -5.351,-17.03 -1.956,-2.231 -4.772,-3.773 -5.912,-6.551 -0.991,-2.415 -0.478,-5.269 -1.415,-7.707 -0.827,-2.152 -2.658,-3.68 -3.971,-5.552 -2.859,-4.078 -3.054,-9.839 -0.953,-14.39 2.101,-4.551 6.264,-7.881 10.885,-9.407 4.621,-1.526 9.655,-1.358 14.358,-0.134 3.472,0.905 6.85,2.401 9.617,4.765 2.767,2.365 4.89,5.653 5.523,9.322 0.704,4.085 -0.439,8.233 -1.28,12.29 -2.661,12.836 -1.901,13.503 1.457,25.409 0.075,0.209 0.122,0.428 0.18,0.644 0.045,0.158 0.087,0.309 0.133,0.471 l -0.007,0.003 c 0.093,0.466 0.155,0.94 0.157,1.424 -0.972,-0.383 -2.147,-0.129 -2.892,0.625 -0.745,0.754 -1.023,1.97 -0.683,2.993 0.39,1.177 1.47,1.964 2.579,2.43 1.109,0.467 2.302,0.698 3.391,1.216 2.309,1.098 3.909,3.379 4.999,5.768 C -0.05,-3.69 0.519,-1.772 0,0" /></g><g
           transform="translate(186.5869,302.0283)"
           id="g578"><path
             id="path580"
             style="fill:#ff4f5b;fill-opacity:1;fill-rule:nonzero;stroke:none"
             d="M 0,0 C 0.035,0.015 0.229,-0.357 0.526,-0.988 0.823,-1.62 1.222,-2.511 1.664,-3.535 L 1.748,-3.729 1.536,-3.747 C 1.202,-3.775 0.865,-3.804 0.518,-3.834 -0.18,-3.88 -0.762,-3.963 -1.438,-3.956 c -0.107,0.019 -0.226,0.117 -0.258,0.227 -0.036,0.108 -0.026,0.199 -0.015,0.278 0.029,0.157 0.063,0.273 0.094,0.406 l 0.177,0.708 c 0.221,0.864 0.378,1.393 0.42,1.384 0.042,-0.01 -0.039,-0.557 -0.205,-1.432 l -0.139,-0.716 c -0.052,-0.241 -0.139,-0.603 -0.009,-0.575 0.498,0.022 1.207,0.105 1.865,0.153 0.348,0.028 0.685,0.054 1.018,0.081 L 1.382,-3.654 C 0.954,-2.625 0.591,-1.718 0.344,-1.066 0.097,-0.414 -0.035,-0.015 0,0" /></g><g
           transform="translate(152.355,217.8291)"
           id="g582"><path
             id="path584"
             style="fill:#1a2e35;fill-opacity:1;fill-rule:nonzero;stroke:none"
             d="m 0,0 44.34,1.353 19.285,-75.339 -3.552,-86.419 H 36.604 l 2.909,84.579 -17.152,52.446 2.642,-140.376 -23.693,-0.349 -2.497,131.948 c -0.104,3.667 -1.311,11.941 -0.861,15.579 z" /></g><g
           transform="translate(180.6211,193.3838)"
           id="g586"><path
             id="path588"
             style="fill:#375a64;fill-opacity:1;fill-rule:nonzero;stroke:none"
             d="m 0,0 c -0.009,-0.069 -0.841,-0.028 -2.175,0.129 -1.334,0.157 -3.169,0.438 -5.179,0.842 -2.01,0.405 -3.812,0.855 -5.103,1.226 -1.291,0.371 -2.074,0.654 -2.055,0.722 0.039,0.144 3.259,-0.636 7.261,-1.438 C -3.252,0.673 0.019,0.148 0,0" /></g><g
           transform="translate(212.2149,62.1631)"
           id="g590"><path
             id="path592"
             style="fill:#375a64;fill-opacity:1;fill-rule:nonzero;stroke:none"
             d="m 0,0 c 0,-0.145 -5.313,-0.261 -11.866,-0.261 -6.555,0 -11.867,0.116 -11.867,0.261 0,0.144 5.312,0.26 11.867,0.26 C -5.313,0.26 0,0.144 0,0" /></g><g
           transform="translate(177.146,57.7197)"
           id="g594"><path
             id="path596"
             style="fill:#375a64;fill-opacity:1;fill-rule:nonzero;stroke:none"
             d="m 0,0 c 0,-0.145 -5.154,-0.261 -11.512,-0.261 -6.359,0 -11.512,0.116 -11.512,0.261 0,0.144 5.153,0.26 11.512,0.26 C -5.154,0.26 0,0.144 0,0" /></g><g
           transform="translate(174.0938,58.0791)"
           id="g598"><path
             id="path600"
             style="fill:#375a64;fill-opacity:1;fill-rule:nonzero;stroke:none"
             d="m 0,0 c -0.144,-0.002 -0.767,30.672 -1.392,68.503 -0.625,37.845 -1.014,68.517 -0.871,68.518 0.144,0.002 0.767,-30.665 1.392,-68.509 C -0.246,30.681 0.144,0.003 0,0" /></g><g
           transform="translate(209.063,62.1631)"
           id="g602"><path
             id="path604"
             style="fill:#375a64;fill-opacity:1;fill-rule:nonzero;stroke:none"
             d="m 0,0 c -0.009,0 -0.012,0.139 -0.011,0.408 0.006,0.295 0.013,0.692 0.022,1.198 0.031,1.082 0.076,2.627 0.134,4.605 0.139,4.025 0.34,9.803 0.587,16.931 0.548,14.317 1.303,34.051 2.136,55.849 0.008,0.201 0.016,0.403 0.024,0.588 l 0.007,-0.074 c -5.255,21.043 -10.005,40.062 -13.448,53.853 -1.69,6.87 -3.059,12.435 -4.013,16.313 -0.458,1.906 -0.815,3.397 -1.065,4.439 -0.112,0.49 -0.199,0.872 -0.264,1.158 -0.057,0.261 -0.082,0.396 -0.073,0.398 0.008,0.002 0.05,-0.129 0.124,-0.386 0.077,-0.281 0.181,-0.661 0.314,-1.144 0.273,-1.037 0.662,-2.52 1.16,-4.416 0.991,-3.867 2.415,-9.419 4.172,-16.273 3.483,-13.78 8.285,-32.787 13.598,-53.815 L 3.414,79.596 3.412,79.558 C 3.405,79.373 3.396,79.172 3.389,78.97 2.496,57.175 1.687,37.443 1.1,23.127 0.783,16.002 0.526,10.228 0.347,6.203 0.248,4.228 0.17,2.683 0.116,1.603 0.085,1.097 0.061,0.7 0.042,0.406 0.023,0.137 0.009,-0.001 0,0" /></g><g
           transform="translate(201.4136,143.501)"
           id="g606"><path
             id="path608"
             style="fill:#375a64;fill-opacity:1;fill-rule:nonzero;stroke:none"
             d="m 0,0 c 0.024,-0.142 -2.297,-0.658 -5.185,-1.154 -2.156,-0.371 -4.018,-0.625 -4.831,-0.671 l -0.002,0.203 c 0.27,-0.074 0.415,-0.132 0.41,-0.168 -0.006,-0.036 -0.162,-0.047 -0.441,-0.035 l -0.607,0.026 0.605,0.177 c 0.782,0.228 2.622,0.61 4.778,0.98 C -2.385,-0.146 -0.024,0.143 0,0" /></g><g
           transform="translate(200.9654,140.626)"
           id="g610"><path
             id="path612"
             style="fill:#375a64;fill-opacity:1;fill-rule:nonzero;stroke:none"
             d="m 0,0 c -0.02,-0.145 -2.103,0.016 -4.668,0.213 -2.565,0.202 -4.648,0.366 -4.645,0.513 0.003,0.141 2.104,0.21 4.686,0.006 C -2.047,0.533 0.019,0.14 0,0" /></g><g
           id="g614"><g
             id="g616" /><g
             id="g628"><g
               style="opacity:0.19999701"
               id="g626"
               clip-path="url(#clipPath620)"><g
                 id="g624"
                 transform="translate(152.1582,216.2373)"><path
                   id="path622"
                   style="fill:#000000;fill-opacity:1;fill-rule:nonzero;stroke:none"
                   d="M 0,0 C 1.072,-1.509 2.601,-2.038 4.377,-2.329 6.154,-2.62 7.966,-2.426 9.755,-2.228 21.2,-0.958 33.328,0.214 44.537,2.944 30.028,2.131 14.706,2.405 0.197,1.592 c 0,0 -0.124,-0.998 -0.153,-1.238" /></g></g></g></g><g
           id="g630"><g
             id="g632" /><g
             id="g644"><g
               style="opacity:0.19999701"
               id="g642"
               clip-path="url(#clipPath636)"><g
                 id="g640"
                 transform="translate(167.1138,195.7861)"><path
                   id="path638"
                   style="fill:#000000;fill-opacity:1;fill-rule:nonzero;stroke:none"
                   d="M 0,0 8.174,-31.732 7.602,-1.337 Z" /></g></g></g></g></g></g></g></svg>